<?xml version="1.0" standalone="no"?><!DOCTYPE svg PUBLIC "-//W3C//DTD SVG 1.1//EN" "http://www.w3.org/Graphics/SVG/1.1/DTD/svg11.dtd"><svg t="1607422186762" class="icon" viewBox="0 0 1024 1024" version="1.1" xmlns="http://www.w3.org/2000/svg" p-id="1412" xmlns:xlink="http://www.w3.org/1999/xlink" width="200" height="200"><defs><style type="text/css"></style></defs><path d="M478.33 98.23h49.45c24.35 3.34 50.36 6.53 74.75 14.29 16.23 5.16 54.23 15.22 56.35 32.15 1.53 12.16-10.49 31.72-16.1 44.06-39.21 86.2-74.1 162.44-112.7 247.68-5.55 12.25-11.65 34.03-27.6 33.34-14.12-0.61-18.03-19.35-24.15-34.53-35.72-88.62-66.36-167.83-101.2-254.83-4.17-10.41-17.31-33.14-13.8-46.44 3.61-13.69 36.62-19.67 51.75-23.82 20.13-5.51 36.97-9.11 63.25-11.9z m446.21 397.72v59.54c-2.19 24.66-8.27 52.32-16.1 77.4-5.71 18.3-13.85 56.93-31.05 60.73-12.36 2.73-29.25-10.95-40.25-16.67-72.77-37.88-126.3-65.18-197.8-102.41-15.67-8.15-72.03-28.1-73.6-46.44-0.97-11.36 11.78-29.62 17.25-41.68 39.09-86.2 72.1-163.06 111.55-248.87 4.91-10.68 14.33-33.57 25.3-34.53 10.77-0.95 31.49 13.93 41.4 20.24 91.19 58.12 145.48 142.23 163.3 272.69z" p-id="1413"></path><path d="M472.58 923.44h-54.05c-181.91-26.52-289.25-136.92-315.1-326.27V541.2c3.47-37.64 12.86-75.81 25.3-107.17 31.37-79.11 82.91-135.33 151.8-175.05 12.38-7.14 32.65-20.66 44.85-17.86 10.64 2.44 16.18 19.03 21.85 33.34 38.43 96.9 73.21 188.89 111.55 282.21 86.1 44.36 172.95 90.48 259.9 135.75 12.36 6.43 31.47 11.91 33.35 23.81 2.25 14.23-11.19 31.14-18.4 42.87-54.95 89.37-137.7 149.73-261.05 164.34z" p-id="1414"></path></svg>