<?xml version="1.0" standalone="no"?><!DOCTYPE svg PUBLIC "-//W3C//DTD SVG 1.1//EN" "http://www.w3.org/Graphics/SVG/1.1/DTD/svg11.dtd"><svg t="1607422182442" class="icon" viewBox="0 0 1024 1024" version="1.1" xmlns="http://www.w3.org/2000/svg" p-id="1280" xmlns:xlink="http://www.w3.org/1999/xlink" width="200" height="200"><defs><style type="text/css"></style></defs><path d="M127.47 373.16l315.79 159.82c19.8 10.14 43.46 15.45 69.05 15.45 24.14 0 47.32-6.28 69.05-15.45l315.79-159.82c17.87-10.14 29.45-29.45 29.45-49.73 0-21.73-11.59-39.59-29.45-49.73L581.36 113.87C559.63 102.28 535.49 96 512.31 96s-47.32 6.28-69.05 15.45l-315.79 160.8c-17.87 11.59-29.45 29.45-29.45 51.18-0.48 20.28 11.59 39.59 29.45 49.73z m736.84 100.92L553.83 644.04c-25.59 11.59-55.05 11.59-79.19 0L160.79 474.08c-19.8-11.59-45.87-3.86-57.46 15.45s-3.86 45.87 15.45 57.46l315.79 169.96c24.14 11.59 49.73 17.87 76.77 17.87 25.59 0 51.18-6.28 79.19-17.87l315.79-169.96c19.8-11.59 25.59-37.18 14-57.46-11.11-19.8-35.73-28.01-56.01-15.45z m0 189.28L553.83 833.32c-25.59 11.59-55.05 11.59-79.19 0L160.79 665.77c-19.8-11.59-45.87-3.86-57.46 15.45-11.59 19.8-3.86 45.87 15.45 57.46l315.79 169.96c24.14 11.59 49.73 17.87 76.77 17.87 29.45 0 55.05-6.28 79.19-17.87l315.79-169.96c19.8-11.59 25.59-37.18 14-57.46-10.14-21.73-35.73-28-56.01-17.86z" p-id="1281"></path></svg>