<?xml version="1.0" standalone="no"?><!DOCTYPE svg PUBLIC "-//W3C//DTD SVG 1.1//EN" "http://www.w3.org/Graphics/SVG/1.1/DTD/svg11.dtd"><svg t="1607421929128" class="icon" viewBox="0 0 1024 1024" version="1.1" xmlns="http://www.w3.org/2000/svg" p-id="1266" xmlns:xlink="http://www.w3.org/1999/xlink" width="200" height="200"><defs><style type="text/css"></style></defs><path d="M781.72 825.97V215.8c-0.6-13.79-3-36.56-17.38-50.95-10.19-10.19-25.17-14.98-44.95-14.98-40.76 0-61.14 30.57-61.14 91.11v112.09c0 13.79-11.39 25.77-25.77 25.77H158.96V797.8c0 70.13 44.95 127.07 115.08 127.07h11.99l531.06-0.6c-22.18-22.17-35.37-56.34-35.37-98.3zM637.27 721.68H304.01c-16.78 0-30.57-13.79-30.57-30.57s13.79-30.57 30.57-30.57h333.26c16.78 0 30.57 13.79 30.57 30.57s-13.78 30.57-30.57 30.57z m0-163.03H304.01c-16.78 0-30.57-13.79-30.57-30.57s13.79-30.57 30.57-30.57h333.26c16.78 0 30.57 13.79 30.57 30.57s-13.78 30.57-30.57 30.57z m196 267.32c0 22.78 5.99 76.72 59.94 76.72 22.18 0 35.96-8.99 44.95-20.38 5.99-9.59 10.79-20.38 13.19-31.77v-1.2c0-1.2 0.6-3 0.6-4.2 0.6-5.99 1.2-11.39 1.2-14.98V678.52c0-9.59-7.19-17.38-17.38-17.38h-102.5v164.83z" p-id="1267"></path><path d="M88.23 327.88H607.3v-86.31c0-83.91 37.16-136.06 100.7-141.46-5.99-1.2-12.59-1.8-18.58-1.8H163.76c-50.95 0-92.91 38.36-92.91 85.71v130.67c0 6 7.19 13.19 17.38 13.19z" p-id="1268"></path></svg>