<?xml version="1.0" standalone="no"?><!DOCTYPE svg PUBLIC "-//W3C//DTD SVG 1.1//EN" "http://www.w3.org/Graphics/SVG/1.1/DTD/svg11.dtd"><svg t="1607931673254" class="icon" viewBox="0 0 1024 1024" version="1.1" xmlns="http://www.w3.org/2000/svg" p-id="1151" xmlns:xlink="http://www.w3.org/1999/xlink" width="200" height="200"><defs><style type="text/css"></style></defs><path d="M513 513.3m-415 0a415 415 0 1 0 830 0 415 415 0 1 0-830 0Z" fill="#e3f4ff" p-id="1152"></path><path d="M513 513.3c-25.84 0-50.15-10.08-68.45-28.37-18.29-18.29-28.37-42.61-28.37-68.45 0-25.84 10.08-50.15 28.37-68.45 18.29-18.29 42.61-28.37 68.45-28.37s50.15 10.08 68.45 28.37c18.29 18.29 28.37 42.61 28.37 68.45 0 25.84-10.08 50.15-28.37 68.45-18.3 18.29-42.61 28.37-68.45 28.37z m195.04 129.24c-10.64-25.22-25.95-47.85-45.37-67.27-19.42-19.42-42.05-34.67-67.27-45.37-0.23-0.11-0.45-0.17-0.68-0.28 35.07-25.33 57.87-66.59 57.87-113.14 0-77.12-62.48-139.6-139.6-139.6s-139.6 62.48-139.6 139.6c0 46.55 22.8 87.81 57.87 113.2-0.23 0.11-0.45 0.17-0.68 0.28-25.22 10.64-47.85 25.89-67.27 45.37-19.42 19.42-34.67 42.05-45.37 67.27-10.47 24.65-16.04 50.83-16.61 77.74a4.508 4.508 0 0 0 4.5 4.62h33.77c2.48 0 4.45-1.97 4.5-4.39 1.13-43.46 18.58-84.15 49.42-115 31.92-31.92 74.3-49.48 119.45-49.48s87.53 17.56 119.45 49.48c30.85 30.85 48.3 71.54 49.42 115 0.06 2.48 2.03 4.39 4.5 4.39h33.77c2.53 0 4.56-2.08 4.5-4.62-0.52-26.91-6.1-53.09-16.57-77.8z" fill="#0E4888" p-id="1153"></path></svg>