<?xml version="1.0" standalone="no"?><!DOCTYPE svg PUBLIC "-//W3C//DTD SVG 1.1//EN" "http://www.w3.org/Graphics/SVG/1.1/DTD/svg11.dtd"><svg t="1607422190861" class="icon" viewBox="0 0 1024 1024" version="1.1" xmlns="http://www.w3.org/2000/svg" p-id="1543" xmlns:xlink="http://www.w3.org/1999/xlink" width="200" height="200"><defs><style type="text/css"></style></defs><path d="M742.85 133.56c-13.9-15.95-32.23-27.59-53.03-33.2 9.7 3.23-3.45 0.54-19.19-0.32-15.74-0.86-33.52 4.2-53.46 15.31-13.15 7.01-31.26 16.92-54.76 29.64-23.39 12.83-47 25.55-71.03 38.48a5958.754 5958.754 0 0 1-87.2 47.1h388.26l-49.59-97.01z m-24.14 539.8c-21.34 0-37.62-4.31-48.83-13.04s-19.29-18.22-24.14-28.78c-6.04-12.4-9.49-26.73-10.02-42.79 0-23.5 7.98-43.44 24.14-59.5 16.17-16.06 35.68-24.14 58.74-24.14h206.85V378.45h0.22c0-23.5-7.98-43.55-24.14-59.93-16.17-16.49-35.68-24.58-58.74-24.58H181.06c-23.07 0-42.68 8.19-58.74 24.58-16.06 16.49-24.14 36.43-24.14 59.93V842.7c0 11.75 2.26 22.74 6.9 33.09 10.46 23.17 30.07 40.74 54.11 48.18 2.16 1.4 13.15 3.56 24.68 3.56h662.58c11.21 0 21.88-2.37 31.47-6.79 9.27-4.1 17.79-10.13 25.11-18s12.93-16.71 16.82-26.95c3.88-10.24 5.93-21.23 5.93-33.09V673.36H718.71z m-21.56-114.58c-8.3 8.41-12.4 18.76-12.4 31.04 0 12.29 4.1 22.85 12.4 31.58 8.3 8.73 18.32 13.04 30.4 13.04s22.2-4.31 30.4-13.04c8.3-8.73 12.4-19.29 12.4-31.58s-4.1-22.64-12.4-31.04c-8.3-8.41-18.32-12.61-30.4-12.61-11.97 0-22.1 4.21-30.4 12.61z" p-id="1544"></path></svg>