<?xml version="1.0" encoding="utf-8"?>
<!-- Generator: Adobe Illustrator 24.0.1, SVG Export Plug-In . SVG Version: 6.00 Build 0)  -->
<svg version="1.1" id="图层_1" xmlns="http://www.w3.org/2000/svg" xmlns:xlink="http://www.w3.org/1999/xlink" x="0px" y="0px"
	 viewBox="0 0 1024 1024" style="enable-background:new 0 0 1024 1024;" xml:space="preserve">
<style type="text/css">
	.st0{fill:#BDC8D6;}
</style>
<g>
	<path class="st0" d="M543.07,790.26c29.44,11.55,67.62,17.98,107.8,17.98h0.2c40.29,0,78.57-6.43,108-18.08
		c48.02-18.89,59.58-46.52,61.59-64.5c5.32,0.2,10.75,0.2,16.08,0.2h0.2c39.38,0,77.06-5.12,105.69-14.37
		c16.18-5.22,29.44-11.65,39.38-19.29c21.4-16.28,24.61-35.36,24.61-45.21v-7.54l-0.1-73.74c0,17.28-7.94,49.43-61.79,70.73
		c-29.44,11.65-67.72,17.98-108,18.08h-0.2c-40.09,0-78.47-6.33-107.8-17.98c-51.44-20.29-61.08-50.33-61.89-68.12l0.1,43v19.79
		c-5.22-0.2-10.45-0.4-15.87-0.4h-0.2c-40.29,0-78.57,6.43-108,18.08c-53.85,21.3-61.89,53.45-61.79,70.73
		C481.08,736.91,489.12,769.06,543.07,790.26L543.07,790.26z"/>
	<path class="st0" d="M728.84,604.49c29.44,11.55,67.62,17.98,107.8,17.98h0.2c40.29,0,78.57-6.43,108-18.08
		c53.85-21.3,61.89-53.45,61.79-70.73c0-17.28-8.14-49.43-61.99-70.63c-29.44-11.55-67.62-17.98-107.8-17.98h-0.2
		c-40.29,0-78.57,6.43-108,18.08c-53.85,21.3-61.89,53.45-61.79,70.73C666.75,551.15,674.89,583.3,728.84,604.49z M820.47,757.91
		c-2.01,17.98-13.66,45.51-61.59,64.4c-29.44,11.65-67.72,17.98-108,18.08h-0.2c-40.09,0-78.47-6.33-107.8-17.98
		c-51.44-20.19-61.08-50.33-61.89-68.12l0.1,43v35.77c0,9.85,3.21,28.93,24.82,45.11c10.05,7.64,23.21,14.07,39.38,19.19
		c28.73,9.14,66.21,14.27,105.49,14.27h0.2c39.38,0,77.06-5.12,105.69-14.37c16.18-5.22,29.44-11.65,39.38-19.29
		c21.4-16.28,24.61-35.36,24.61-45.21v-3.42c5.12,0.1,10.35,0.2,15.57,0.2h0.2c39.38,0,77.06-5.12,105.69-14.37
		c16.18-5.22,29.44-11.65,39.38-19.29c21.4-16.28,24.61-35.36,24.61-45.21v-7.54l-0.1-73.74c0,17.28-7.94,49.43-61.79,70.73
		c-29.44,11.65-67.72,17.98-108,18.08h-0.2C831.12,758.11,825.89,758.01,820.47,757.91L820.47,757.91z"/>
	<g>
		<g>
			<path class="st0" d="M761.99,111.69H79.81c-32.85,0-59.58,26.62-59.58,59.58v526.25c0,32.85,26.62,59.58,59.58,59.58h368.02
				c5.22,0,9.54-4.32,9.54-9.54l-0.1-46.82c0-17.28,19.89-54.15,73.74-75.45c24.51-9.75,81.68-20.7,103.98-23.91
				c4.62-0.7,8.24-4.62,8.14-9.44v-81.88h-0.2c0-17.28,19.89-48.22,73.74-69.52c26.32-10.45,59.88-16.68,95.65-17.88
				c5.12-0.1,9.24-4.42,9.24-9.55V171.27C821.57,138.42,794.95,111.69,761.99,111.69z M693.32,310.58
				C578.65,501.7,538.58,497.71,523.52,496.19c-29.97-3-57.55-30.66-86.76-59.93c-7.4-7.42-17.3-17.35-25.01-24.11
				c-9.71,11.89-23.46,31.94-33.45,46.52c-36.69,53.51-61.58,89.81-93.21,89.81c-1.74,0-3.5-0.11-5.28-0.33
				c-27.15-3.4-70.52-42.47-128.94-116.12c-11.11-14.02-8.77-34.39,5.24-45.5c14.01-11.11,34.38-8.77,45.5,5.24
				c29.3,36.93,63.43,73.39,81.18,87.41c11.77-12.95,30.16-39.77,42.07-57.14c38.37-55.95,56.49-80.7,83.88-80.7
				c24.82,0,45.4,20.62,73.87,49.17c11.68,11.71,32.08,32.16,43.65,39.18c20.87-16.28,69.43-82.34,111.5-152.43
				c9.2-15.32,29.12-20.29,44.44-11.1C697.55,275.35,702.53,295.25,693.32,310.58z"/>
		</g>
	</g>
</g>
</svg>
