<?xml version="1.0" standalone="no"?><!DOCTYPE svg PUBLIC "-//W3C//DTD SVG 1.1//EN"
        "http://www.w3.org/Graphics/SVG/1.1/DTD/svg11.dtd">
<svg t="1607422194619" class="icon" viewBox="0 0 1024 1024" version="1.1" xmlns="http://www.w3.org/2000/svg" p-id="1675"
     xmlns:xlink="http://www.w3.org/1999/xlink" width="200" height="200">
  <defs>
    <style type="text/css"></style>
  </defs>
  <path d="M511.29 98.15c-228.62 0-413.96 185.33-413.96 413.96s185.33 413.96 413.96 413.96 413.96-185.34 413.96-413.96S739.91 98.15 511.29 98.15z m161.34 452.78c-0.36 1.99-0.9 3.94-1.61 5.84-19.49 66.08-79.72 114.57-152.06 114.57-88.03 0.02-159.41-71.33-159.43-159.35v-0.05c0-86.62 69.21-156.75 155.3-159.01 0.72-0.06 5.74-0.49 6.2-0.43 2.36 0.4 4.64 1.14 6.78 2.2 13.23 4.53 22.13 16.94 22.2 30.92 0 17.63-15.71 32.1-33.13 33.13-52.59-0.11-95.32 42.43-95.43 95.02-0.11 52.59 42.43 95.32 95.02 95.43 45.26 0.1 84.34-31.68 93.47-76.02 4.23-13.41 16.34-23.34 31.15-23.34 17.32 0 31.09 13.44 32.57 30.33 0.02 0.04-0.14 7.26-1.03 10.76z m128.54-256.84L574.74 506.24c0.08 1.21 0.14 2.41 0.14 3.64-0.01 29.73-24.11 53.83-53.84 53.82-29.73-0.01-53.83-24.11-53.82-53.84 0.01-29.73 24.11-53.83 53.84-53.82 3.18 0 6.36 0.28 9.49 0.85l225.39-211.16c13.22-12.36 33.95-11.66 46.31 1.55l0.02 0.02 0.46 0.46c12.36 13.21 11.67 33.95-1.54 46.31l-0.02 0.02z"
        p-id="1676"></path>
</svg>
