<?xml version="1.0" encoding="utf-8"?>
<!-- Generator: Adobe Illustrator 24.0.1, SVG Export Plug-In . SVG Version: 6.00 Build 0)  -->
<svg version="1.1" id="图层_1" xmlns="http://www.w3.org/2000/svg" xmlns:xlink="http://www.w3.org/1999/xlink" x="0px" y="0px"
	 viewBox="0 0 1024 1024" style="enable-background:new 0 0 1024 1024;" xml:space="preserve">
<style type="text/css">
	.st0{fill:#BDC8D6;}
</style>
<g>
	<path class="st0" d="M199.55,732.3c69.71,92.84,179.08,147.42,295.17,147.3c85.18,0.15,167.77-29.28,233.65-83.27
		c17.54-14.36,43.41-11.78,57.77,5.76c14.36,17.55,11.78,43.41-5.77,57.77c-80.55,66-181.51,101.98-285.65,101.83
		c-141.86,0.14-275.52-66.53-360.75-179.93c-13.64-18.11-10.03-43.85,8.08-57.5c18.11-13.65,43.85-10.03,57.5,8.08V732.3z
		 M583.66,67.51C709.8,92.86,819.15,170.81,884.23,281.8c65.09,110.99,79.74,244.47,40.28,366.94
		c-6.95,21.58-30.07,33.44-51.65,26.49c-21.58-6.95-33.44-30.07-26.49-51.65c32.28-100.19,20.3-209.39-32.95-300.2
		c-53.24-90.8-142.69-154.59-245.89-175.35c-14.38-2.88-26.14-13.22-30.84-27.11c-4.7-13.9-1.62-29.24,8.06-40.26
		C554.45,69.64,569.27,64.63,583.66,67.51L583.66,67.51z M410.17,106.37c3.28,10.38,2.31,21.64-2.71,31.29
		c-5.02,9.66-13.67,16.93-24.05,20.21c-177.42,56.1-285.45,235.38-252.16,418.46c2.86,14.54-2.34,29.48-13.61,39.11
		c-11.26,9.62-26.83,12.43-40.75,7.35c-13.91-5.09-24.01-17.27-26.42-31.89C9.84,367.17,141.88,148.11,358.71,79.57
		C380.32,72.77,403.36,84.76,410.17,106.37L410.17,106.37z M410.17,106.37"/>
	<path class="st0" d="M207.43,201.59c0,79.33,64.31,143.65,143.65,143.65c79.33,0,143.64-64.31,143.64-143.65
		c0-79.33-64.31-143.64-143.64-143.64C271.74,57.94,207.43,122.26,207.43,201.59L207.43,201.59z"/>
	<path class="st0" d="M207.43,201.59"/>
	<path class="st0" d="M84.31,817.21c0,79.33,64.31,143.65,143.64,143.65c79.33,0,143.65-64.31,143.65-143.65
		c0-79.33-64.31-143.64-143.65-143.64C148.62,673.57,84.31,737.88,84.31,817.21L84.31,817.21z"/>
	<path class="st0" d="M84.31,817.21"/>
	<path class="st0" d="M699.93,612.01c0,79.33,64.31,143.64,143.64,143.64c79.33,0,143.65-64.31,143.65-143.64
		c0-79.33-64.31-143.65-143.65-143.65C764.24,468.36,699.93,532.67,699.93,612.01L699.93,612.01z"/>
	<path class="st0" d="M699.93,612.01"/>
</g>
</svg>
