<?xml version="1.0" standalone="no"?><!DOCTYPE svg PUBLIC "-//W3C//DTD SVG 1.1//EN" "http://www.w3.org/Graphics/SVG/1.1/DTD/svg11.dtd"><svg t="1607422177020" class="icon" viewBox="0 0 1024 1024" version="1.1" xmlns="http://www.w3.org/2000/svg" p-id="1150" xmlns:xlink="http://www.w3.org/1999/xlink" width="200" height="200"><defs><style type="text/css"></style></defs><path d="M732.85 852.9c20.33-0.09 36.88 16.31 36.97 36.64 0.08 18.78-13.98 34.61-32.64 36.73l-4.33 0.24H291.09c-20.33-0.04-36.77-16.54-36.74-36.87 0.03-18.61 13.96-34.27 32.44-36.48l4.3-0.24h441.79l-0.03-0.02z m83.27-754.67c53.68 0 98.05 45.58 101.2 103.96l0.17 6.48v441.79c0 58.48-41.84 106.82-95.43 110.25l-5.95 0.19H207.84c-53.69 0.01-98.08-45.59-101.22-103.98l-0.15-6.48V208.66c0-58.48 41.84-106.82 95.43-110.25l5.95-0.19c-0.01 0.01 608.27 0.01 608.27 0.01zM747.1 290.02l-3.45 3.07L633.9 402.77a36.812 36.812 0 0 1-38.17 8.75l-4.3-1.84-99.77-49.88c-14.45-7.22-31.91-4.18-43.07 7.49l-2.88 3.31-68.64 91.57c-10.7 14.27-30.1 18.81-46.02 10.78l-3.83-2.22-52.48-34.98-3.73-2.22c-18.05-9.35-40.26-2.29-49.61 15.76-7.93 15.31-4.17 34.06 9.04 45.13l3.4 2.58 110.46 73.63c14.84 9.9 34.65 7.73 46.99-5.15l2.88-3.4L467.73 464c9.69-12.93 26.68-18.03 41.89-12.58l4.04 1.73 92.3 46.16a36.802 36.802 0 0 0 38.95-3.78l3.55-3.14L795.7 345.12l3.07-3.45c12.51-16.02 9.66-39.15-6.36-51.66-13.31-10.4-31.99-10.39-45.31 0.01z" p-id="1151"></path></svg>